<mxfile host="www.draw.io" modified="2020-03-27T02:08:20.938Z" agent="Mozilla/5.0 (Macintosh; Intel Mac OS X 10_14_4) AppleWebKit/537.36 (KHTML, like Gecko) Chrome/80.0.3987.132 Safari/537.36" etag="Ig2cPqDj2b24IZHpP4bc" version="12.8.8" type="github">
  <diagram id="68AKn7hBrkc6Hizn51Uo" name="第 1 页">
    <mxGraphModel dx="1331" dy="726" grid="1" gridSize="10" guides="1" tooltips="1" connect="1" arrows="1" fold="1" page="1" pageScale="1" pageWidth="2354" pageHeight="1336" math="0" shadow="0">
      <root>
        <mxCell id="0" />
        <mxCell id="1" parent="0" />
        <mxCell id="wY_InP9v4MQlX6HiAcbp-243" style="edgeStyle=orthogonalEdgeStyle;rounded=0;orthogonalLoop=1;jettySize=auto;html=1;exitX=0.5;exitY=1;exitDx=0;exitDy=0;entryX=0.5;entryY=0;entryDx=0;entryDy=0;" edge="1" parent="1" source="wY_InP9v4MQlX6HiAcbp-240" target="wY_InP9v4MQlX6HiAcbp-54">
          <mxGeometry relative="1" as="geometry" />
        </mxCell>
        <mxCell id="wY_InP9v4MQlX6HiAcbp-244" value="读/写" style="text;html=1;align=center;verticalAlign=middle;resizable=0;points=[];labelBackgroundColor=#ffffff;" vertex="1" connectable="0" parent="wY_InP9v4MQlX6HiAcbp-243">
          <mxGeometry x="-0.1206" y="-2" relative="1" as="geometry">
            <mxPoint as="offset" />
          </mxGeometry>
        </mxCell>
        <mxCell id="wY_InP9v4MQlX6HiAcbp-240" value="" style="rounded=0;whiteSpace=wrap;html=1;labelBackgroundColor=none;strokeWidth=2;fillColor=none;dashed=1;" vertex="1" parent="1">
          <mxGeometry x="170" y="430" width="1000" height="470" as="geometry" />
        </mxCell>
        <mxCell id="wY_InP9v4MQlX6HiAcbp-236" value="" style="rounded=0;whiteSpace=wrap;html=1;labelBackgroundColor=none;strokeWidth=2;fillColor=none;" vertex="1" parent="1">
          <mxGeometry x="752.25" y="1010" width="231" height="140" as="geometry" />
        </mxCell>
        <mxCell id="wY_InP9v4MQlX6HiAcbp-54" value="" style="rounded=0;whiteSpace=wrap;html=1;labelBackgroundColor=none;strokeWidth=2;fillColor=none;dashed=1;" vertex="1" parent="1">
          <mxGeometry x="170" y="970" width="1000" height="200" as="geometry" />
        </mxCell>
        <mxCell id="wY_InP9v4MQlX6HiAcbp-229" value="" style="rounded=0;whiteSpace=wrap;html=1;labelBackgroundColor=none;strokeWidth=2;fillColor=none;" vertex="1" parent="1">
          <mxGeometry x="209" y="1010" width="231" height="140" as="geometry" />
        </mxCell>
        <mxCell id="wY_InP9v4MQlX6HiAcbp-217" value="" style="rounded=0;whiteSpace=wrap;html=1;labelBackgroundColor=none;strokeWidth=2;fillColor=none;" vertex="1" parent="1">
          <mxGeometry x="526" y="486" width="610" height="387" as="geometry" />
        </mxCell>
        <mxCell id="wY_InP9v4MQlX6HiAcbp-31" value="" style="rounded=0;whiteSpace=wrap;html=1;labelBackgroundColor=none;strokeWidth=2;fillColor=none;" vertex="1" parent="1">
          <mxGeometry x="553.75" y="526" width="220.5" height="146" as="geometry" />
        </mxCell>
        <mxCell id="wY_InP9v4MQlX6HiAcbp-221" style="edgeStyle=orthogonalEdgeStyle;rounded=0;orthogonalLoop=1;jettySize=auto;html=1;exitX=0.5;exitY=1;exitDx=0;exitDy=0;" edge="1" parent="1" source="wY_InP9v4MQlX6HiAcbp-1">
          <mxGeometry relative="1" as="geometry">
            <mxPoint x="669.9999999999998" y="280" as="targetPoint" />
          </mxGeometry>
        </mxCell>
        <mxCell id="wY_InP9v4MQlX6HiAcbp-1" value="" style="rounded=0;whiteSpace=wrap;html=1;strokeWidth=2;" vertex="1" parent="1">
          <mxGeometry x="490" y="83" width="360" height="120" as="geometry" />
        </mxCell>
        <mxCell id="wY_InP9v4MQlX6HiAcbp-222" style="edgeStyle=orthogonalEdgeStyle;rounded=0;orthogonalLoop=1;jettySize=auto;html=1;exitX=0.25;exitY=1;exitDx=0;exitDy=0;" edge="1" parent="1" source="wY_InP9v4MQlX6HiAcbp-2">
          <mxGeometry relative="1" as="geometry">
            <mxPoint x="669.9999999999998" y="280" as="targetPoint" />
          </mxGeometry>
        </mxCell>
        <mxCell id="wY_InP9v4MQlX6HiAcbp-2" value="" style="rounded=0;whiteSpace=wrap;html=1;strokeWidth=2;" vertex="1" parent="1">
          <mxGeometry x="887" y="83" width="280" height="120" as="geometry" />
        </mxCell>
        <mxCell id="wY_InP9v4MQlX6HiAcbp-3" value="终端" style="text;html=1;strokeColor=none;fillColor=none;align=center;verticalAlign=middle;whiteSpace=wrap;rounded=0;" vertex="1" parent="1">
          <mxGeometry x="490" y="83" width="41" height="20" as="geometry" />
        </mxCell>
        <mxCell id="wY_InP9v4MQlX6HiAcbp-4" value="第三方系统" style="text;html=1;strokeColor=none;fillColor=none;align=center;verticalAlign=middle;whiteSpace=wrap;rounded=0;" vertex="1" parent="1">
          <mxGeometry x="887" y="83" width="80" height="20" as="geometry" />
        </mxCell>
        <mxCell id="wY_InP9v4MQlX6HiAcbp-5" value="&lt;span lang=&quot;EN-US&quot; style=&quot;white-space: normal ; font-size: 14pt ; font-family: &amp;#34;tim&amp;#34; , serif&quot;&gt;D5000&lt;/span&gt;&lt;span style=&quot;font-size: medium ; white-space: normal&quot;&gt;&lt;/span&gt;" style="rounded=1;whiteSpace=wrap;html=1;fillColor=#dae8fc;strokeColor=#6c8ebf;" vertex="1" parent="1">
          <mxGeometry x="897" y="113" width="80" height="30" as="geometry" />
        </mxCell>
        <mxCell id="wY_InP9v4MQlX6HiAcbp-6" value="&lt;span lang=&quot;EN-US&quot; style=&quot;white-space: normal ; font-size: 14pt ; font-family: &amp;#34;tim&amp;#34; , serif&quot;&gt;PMS&lt;/span&gt;&lt;span style=&quot;font-size: medium ; white-space: normal&quot;&gt;&lt;/span&gt;" style="rounded=1;whiteSpace=wrap;html=1;fillColor=#dae8fc;strokeColor=#6c8ebf;" vertex="1" parent="1">
          <mxGeometry x="992" y="113" width="70" height="30" as="geometry" />
        </mxCell>
        <mxCell id="wY_InP9v4MQlX6HiAcbp-7" value="&lt;span lang=&quot;EN-US&quot; style=&quot;font-size: 14pt ; font-family: &amp;#34;tim&amp;#34; , serif&quot;&gt;OMS&lt;/span&gt;&lt;span style=&quot;font-size: medium&quot;&gt;&lt;/span&gt;" style="rounded=1;whiteSpace=wrap;html=1;fillColor=#dae8fc;strokeColor=#6c8ebf;" vertex="1" parent="1">
          <mxGeometry x="1077" y="113" width="70" height="30" as="geometry" />
        </mxCell>
        <mxCell id="wY_InP9v4MQlX6HiAcbp-8" value="&lt;span lang=&quot;EN-US&quot; style=&quot;font-size: 14pt ; font-family: &amp;#34;tim&amp;#34; , serif&quot;&gt;SCADA&lt;/span&gt;&lt;span style=&quot;font-size: medium&quot;&gt;&lt;/span&gt;" style="rounded=1;whiteSpace=wrap;html=1;fillColor=#dae8fc;strokeColor=#6c8ebf;" vertex="1" parent="1">
          <mxGeometry x="897" y="158" width="90" height="30" as="geometry" />
        </mxCell>
        <mxCell id="wY_InP9v4MQlX6HiAcbp-9" value="&lt;span lang=&quot;EN-US&quot; style=&quot;font-size: 14pt ; font-family: &amp;#34;tim&amp;#34; , serif&quot;&gt;...&lt;/span&gt;&lt;span style=&quot;font-size: medium&quot;&gt;&lt;/span&gt;" style="rounded=1;whiteSpace=wrap;html=1;" vertex="1" parent="1">
          <mxGeometry x="1007" y="158" width="90" height="30" as="geometry" />
        </mxCell>
        <mxCell id="wY_InP9v4MQlX6HiAcbp-13" value="手机" style="aspect=fixed;html=1;points=[];align=center;image;fontSize=12;image=img/lib/mscae/App_Service_Mobile_App.svg;" vertex="1" parent="1">
          <mxGeometry x="702" y="113" width="40.8" height="60" as="geometry" />
        </mxCell>
        <mxCell id="wY_InP9v4MQlX6HiAcbp-15" value="其它" style="outlineConnect=0;dashed=0;verticalLabelPosition=bottom;verticalAlign=top;align=center;html=1;shape=mxgraph.aws3.mobile_hub;fillColor=#AD688A;gradientColor=#F58435;gradientDirection=west;pointerEvents=1" vertex="1" parent="1">
          <mxGeometry x="777" y="112" width="56.48" height="61" as="geometry" />
        </mxCell>
        <mxCell id="wY_InP9v4MQlX6HiAcbp-242" style="edgeStyle=orthogonalEdgeStyle;rounded=0;orthogonalLoop=1;jettySize=auto;html=1;exitX=0.5;exitY=1;exitDx=0;exitDy=0;entryX=0.5;entryY=0;entryDx=0;entryDy=0;" edge="1" parent="1" source="wY_InP9v4MQlX6HiAcbp-16" target="wY_InP9v4MQlX6HiAcbp-240">
          <mxGeometry relative="1" as="geometry" />
        </mxCell>
        <mxCell id="wY_InP9v4MQlX6HiAcbp-16" value="" style="rounded=0;whiteSpace=wrap;html=1;strokeWidth=2;dashed=1;" vertex="1" parent="1">
          <mxGeometry x="170" y="280" width="1000" height="80" as="geometry" />
        </mxCell>
        <mxCell id="wY_InP9v4MQlX6HiAcbp-17" value="API Gateway" style="rounded=0;whiteSpace=wrap;html=1;strokeWidth=2;fillColor=#ffe6cc;strokeColor=#d79b00;" vertex="1" parent="1">
          <mxGeometry x="519.5" y="300" width="278" height="40" as="geometry" />
        </mxCell>
        <mxCell id="wY_InP9v4MQlX6HiAcbp-18" value="接口层" style="text;html=1;strokeColor=#BD7000;fillColor=#f0a30a;align=center;verticalAlign=middle;whiteSpace=wrap;rounded=0;fontColor=#ffffff;" vertex="1" parent="1">
          <mxGeometry x="171" y="280" width="46" height="20" as="geometry" />
        </mxCell>
        <mxCell id="wY_InP9v4MQlX6HiAcbp-21" value="核心业务层" style="text;html=1;strokeColor=none;fillColor=none;align=center;verticalAlign=middle;whiteSpace=wrap;rounded=0;labelBackgroundColor=none;" vertex="1" parent="1">
          <mxGeometry x="528" y="493" width="80" height="20" as="geometry" />
        </mxCell>
        <mxCell id="wY_InP9v4MQlX6HiAcbp-22" value="" style="rounded=0;whiteSpace=wrap;html=1;labelBackgroundColor=none;strokeWidth=2;fillColor=none;" vertex="1" parent="1">
          <mxGeometry x="209" y="486" width="120" height="387" as="geometry" />
        </mxCell>
        <mxCell id="wY_InP9v4MQlX6HiAcbp-23" value="通信服务" style="text;html=1;strokeColor=none;fillColor=none;align=center;verticalAlign=middle;whiteSpace=wrap;rounded=0;labelBackgroundColor=none;" vertex="1" parent="1">
          <mxGeometry x="210" y="491" width="66" height="20" as="geometry" />
        </mxCell>
        <mxCell id="wY_InP9v4MQlX6HiAcbp-25" value="MQ消息队列" style="rounded=0;whiteSpace=wrap;html=1;labelBackgroundColor=none;strokeWidth=2;fillColor=#f8cecc;strokeColor=#b85450;" vertex="1" parent="1">
          <mxGeometry x="223" y="526" width="90" height="40" as="geometry" />
        </mxCell>
        <mxCell id="wY_InP9v4MQlX6HiAcbp-26" value="HTTP接口" style="rounded=0;whiteSpace=wrap;html=1;labelBackgroundColor=none;strokeWidth=2;fillColor=#f8cecc;strokeColor=#b85450;" vertex="1" parent="1">
          <mxGeometry x="223" y="594" width="90" height="40" as="geometry" />
        </mxCell>
        <mxCell id="wY_InP9v4MQlX6HiAcbp-28" value="WEBSOCKET" style="rounded=0;whiteSpace=wrap;html=1;labelBackgroundColor=none;strokeWidth=2;fillColor=#f8cecc;strokeColor=#b85450;" vertex="1" parent="1">
          <mxGeometry x="223" y="661.5" width="90" height="40" as="geometry" />
        </mxCell>
        <mxCell id="wY_InP9v4MQlX6HiAcbp-29" value="MQTT" style="rounded=0;whiteSpace=wrap;html=1;labelBackgroundColor=none;strokeWidth=2;fillColor=#f8cecc;strokeColor=#b85450;" vertex="1" parent="1">
          <mxGeometry x="223" y="728" width="90" height="40" as="geometry" />
        </mxCell>
        <mxCell id="wY_InP9v4MQlX6HiAcbp-30" value="......." style="rounded=0;whiteSpace=wrap;html=1;labelBackgroundColor=none;strokeWidth=2;fillColor=#f8cecc;strokeColor=#b85450;" vertex="1" parent="1">
          <mxGeometry x="224" y="796" width="90" height="40" as="geometry" />
        </mxCell>
        <mxCell id="wY_InP9v4MQlX6HiAcbp-32" value="权&lt;br&gt;限&lt;br&gt;控&lt;br&gt;制" style="rounded=0;whiteSpace=wrap;html=1;labelBackgroundColor=none;strokeWidth=2;fillColor=#d5e8d4;strokeColor=#82b366;" vertex="1" parent="1">
          <mxGeometry x="1053" y="527" width="50" height="316" as="geometry" />
        </mxCell>
        <mxCell id="wY_InP9v4MQlX6HiAcbp-55" value="资源层" style="text;html=1;strokeColor=#BD7000;fillColor=#f0a30a;align=center;verticalAlign=middle;whiteSpace=wrap;rounded=0;labelBackgroundColor=none;fontColor=#ffffff;" vertex="1" parent="1">
          <mxGeometry x="171" y="970" width="60" height="20" as="geometry" />
        </mxCell>
        <mxCell id="wY_InP9v4MQlX6HiAcbp-58" value="mysql数据库" style="shape=cylinder;whiteSpace=wrap;html=1;boundedLbl=1;backgroundOutline=1;labelBackgroundColor=none;strokeWidth=2;fillColor=#d5e8d4;strokeColor=#82b366;" vertex="1" parent="1">
          <mxGeometry x="237" y="1050" width="56" height="80" as="geometry" />
        </mxCell>
        <mxCell id="wY_InP9v4MQlX6HiAcbp-63" value="文件存储库" style="shape=note;whiteSpace=wrap;html=1;backgroundOutline=1;darkOpacity=0.05;labelBackgroundColor=none;strokeWidth=2;fillColor=#ffe6cc;strokeColor=#d79b00;" vertex="1" parent="1">
          <mxGeometry x="1040" y="1020" width="96" height="120" as="geometry" />
        </mxCell>
        <mxCell id="wY_InP9v4MQlX6HiAcbp-69" value="大数据存储库" style="shape=cylinder;whiteSpace=wrap;html=1;boundedLbl=1;backgroundOutline=1;labelBackgroundColor=none;strokeWidth=2;fillColor=#f8cecc;strokeColor=#b85450;" vertex="1" parent="1">
          <mxGeometry x="794" y="1050" width="56" height="80" as="geometry" />
        </mxCell>
        <mxCell id="wY_InP9v4MQlX6HiAcbp-103" value="机器人服务" style="text;html=1;strokeColor=none;fillColor=none;align=center;verticalAlign=middle;whiteSpace=wrap;rounded=0;labelBackgroundColor=none;" vertex="1" parent="1">
          <mxGeometry x="559.25" y="529" width="65" height="20" as="geometry" />
        </mxCell>
        <mxCell id="wY_InP9v4MQlX6HiAcbp-106" value="路径规划" style="rounded=0;whiteSpace=wrap;html=1;labelBackgroundColor=none;strokeWidth=2;fillColor=#e1d5e7;strokeColor=#9673a6;" vertex="1" parent="1">
          <mxGeometry x="669.05" y="567" width="90" height="35" as="geometry" />
        </mxCell>
        <mxCell id="wY_InP9v4MQlX6HiAcbp-107" value="实时消息" style="rounded=0;whiteSpace=wrap;html=1;labelBackgroundColor=none;strokeWidth=2;fillColor=#e1d5e7;strokeColor=#9673a6;" vertex="1" parent="1">
          <mxGeometry x="567.75" y="567" width="90" height="35" as="geometry" />
        </mxCell>
        <mxCell id="wY_InP9v4MQlX6HiAcbp-108" value="任务调度" style="rounded=0;whiteSpace=wrap;html=1;labelBackgroundColor=none;strokeWidth=2;fillColor=#e1d5e7;strokeColor=#9673a6;" vertex="1" parent="1">
          <mxGeometry x="567.75" y="622" width="90" height="35" as="geometry" />
        </mxCell>
        <mxCell id="wY_InP9v4MQlX6HiAcbp-109" value="点云着色" style="rounded=0;whiteSpace=wrap;html=1;labelBackgroundColor=none;strokeWidth=2;fillColor=#e1d5e7;strokeColor=#9673a6;" vertex="1" parent="1">
          <mxGeometry x="669.05" y="622" width="90" height="35" as="geometry" />
        </mxCell>
        <mxCell id="wY_InP9v4MQlX6HiAcbp-150" value="PAD" style="image;html=1;labelBackgroundColor=#ffffff;image=img/lib/clip_art/computers/iPad_128x128.png;strokeWidth=2;fillColor=none;" vertex="1" parent="1">
          <mxGeometry x="608" y="111" width="62" height="62" as="geometry" />
        </mxCell>
        <mxCell id="wY_InP9v4MQlX6HiAcbp-160" value="PC" style="image;html=1;labelBackgroundColor=#ffffff;image=img/lib/clip_art/computers/Laptop_128x128.png;strokeWidth=2;fillColor=none;" vertex="1" parent="1">
          <mxGeometry x="523.5" y="111" width="66.5" height="62" as="geometry" />
        </mxCell>
        <mxCell id="wY_InP9v4MQlX6HiAcbp-220" style="edgeStyle=orthogonalEdgeStyle;rounded=0;orthogonalLoop=1;jettySize=auto;html=1;exitX=0.75;exitY=1;exitDx=0;exitDy=0;" edge="1" parent="1" source="wY_InP9v4MQlX6HiAcbp-163" target="wY_InP9v4MQlX6HiAcbp-16">
          <mxGeometry relative="1" as="geometry" />
        </mxCell>
        <mxCell id="wY_InP9v4MQlX6HiAcbp-163" value="" style="rounded=0;whiteSpace=wrap;html=1;labelBackgroundColor=none;strokeWidth=2;fillColor=none;" vertex="1" parent="1">
          <mxGeometry x="171" y="83" width="265" height="120" as="geometry" />
        </mxCell>
        <mxCell id="wY_InP9v4MQlX6HiAcbp-164" value="巡检机器人" style="outlineConnect=0;fontColor=#232F3E;gradientColor=#FE5151;gradientDirection=north;fillColor=#BE0917;strokeColor=#ffffff;dashed=0;verticalLabelPosition=bottom;verticalAlign=top;align=center;html=1;fontSize=12;fontStyle=0;aspect=fixed;shape=mxgraph.aws4.resourceIcon;resIcon=mxgraph.aws4.robotics;labelBackgroundColor=none;" vertex="1" parent="1">
          <mxGeometry x="192.5" y="115.75" width="56.5" height="56.5" as="geometry" />
        </mxCell>
        <mxCell id="wY_InP9v4MQlX6HiAcbp-166" value="变电站" style="text;html=1;strokeColor=none;fillColor=none;align=center;verticalAlign=middle;whiteSpace=wrap;rounded=0;labelBackgroundColor=none;" vertex="1" parent="1">
          <mxGeometry x="174.5" y="85" width="55.5" height="20" as="geometry" />
        </mxCell>
        <mxCell id="wY_InP9v4MQlX6HiAcbp-174" value="" style="rounded=0;whiteSpace=wrap;html=1;labelBackgroundColor=none;strokeWidth=2;fillColor=none;" vertex="1" parent="1">
          <mxGeometry x="367.5" y="486" width="120" height="387" as="geometry" />
        </mxCell>
        <mxCell id="wY_InP9v4MQlX6HiAcbp-175" value="流媒体服务" style="text;html=1;strokeColor=none;fillColor=none;align=center;verticalAlign=middle;whiteSpace=wrap;rounded=0;labelBackgroundColor=none;" vertex="1" parent="1">
          <mxGeometry x="373.5" y="490" width="66" height="20" as="geometry" />
        </mxCell>
        <mxCell id="wY_InP9v4MQlX6HiAcbp-176" value="RTSP" style="rounded=0;whiteSpace=wrap;html=1;labelBackgroundColor=none;strokeWidth=2;fillColor=#d5e8d4;strokeColor=#82b366;" vertex="1" parent="1">
          <mxGeometry x="381.5" y="526" width="90" height="40" as="geometry" />
        </mxCell>
        <mxCell id="wY_InP9v4MQlX6HiAcbp-177" value="WEBRTC" style="rounded=0;whiteSpace=wrap;html=1;labelBackgroundColor=none;strokeWidth=2;fillColor=#d5e8d4;strokeColor=#82b366;" vertex="1" parent="1">
          <mxGeometry x="381.5" y="586" width="90" height="40" as="geometry" />
        </mxCell>
        <mxCell id="wY_InP9v4MQlX6HiAcbp-178" value="RTMP" style="rounded=0;whiteSpace=wrap;html=1;labelBackgroundColor=none;strokeWidth=2;fillColor=#d5e8d4;strokeColor=#82b366;" vertex="1" parent="1">
          <mxGeometry x="381.5" y="646" width="90" height="40" as="geometry" />
        </mxCell>
        <mxCell id="wY_InP9v4MQlX6HiAcbp-180" value="......." style="rounded=0;whiteSpace=wrap;html=1;labelBackgroundColor=none;strokeWidth=2;fillColor=#d5e8d4;strokeColor=#82b366;" vertex="1" parent="1">
          <mxGeometry x="381.5" y="706" width="90" height="40" as="geometry" />
        </mxCell>
        <mxCell id="wY_InP9v4MQlX6HiAcbp-199" value="" style="rounded=0;whiteSpace=wrap;html=1;labelBackgroundColor=none;strokeWidth=2;fillColor=none;" vertex="1" parent="1">
          <mxGeometry x="553.75" y="695" width="220.5" height="146" as="geometry" />
        </mxCell>
        <mxCell id="wY_InP9v4MQlX6HiAcbp-200" value="大数据计算服务" style="text;html=1;strokeColor=none;fillColor=none;align=center;verticalAlign=middle;whiteSpace=wrap;rounded=0;labelBackgroundColor=none;" vertex="1" parent="1">
          <mxGeometry x="559.25" y="695" width="96.25" height="20" as="geometry" />
        </mxCell>
        <mxCell id="wY_InP9v4MQlX6HiAcbp-201" value="趋势预测" style="rounded=0;whiteSpace=wrap;html=1;labelBackgroundColor=none;strokeWidth=2;fillColor=#ffe6cc;strokeColor=#d79b00;" vertex="1" parent="1">
          <mxGeometry x="669.05" y="736" width="90" height="35" as="geometry" />
        </mxCell>
        <mxCell id="wY_InP9v4MQlX6HiAcbp-202" value="温度分析" style="rounded=0;whiteSpace=wrap;html=1;labelBackgroundColor=none;strokeWidth=2;fillColor=#ffe6cc;strokeColor=#d79b00;" vertex="1" parent="1">
          <mxGeometry x="567.75" y="736" width="90" height="35" as="geometry" />
        </mxCell>
        <mxCell id="wY_InP9v4MQlX6HiAcbp-203" value="故障预警" style="rounded=0;whiteSpace=wrap;html=1;labelBackgroundColor=none;strokeWidth=2;fillColor=#ffe6cc;strokeColor=#d79b00;" vertex="1" parent="1">
          <mxGeometry x="567.75" y="791" width="90" height="35" as="geometry" />
        </mxCell>
        <mxCell id="wY_InP9v4MQlX6HiAcbp-204" value="报警统计" style="rounded=0;whiteSpace=wrap;html=1;labelBackgroundColor=none;strokeWidth=2;fillColor=#ffe6cc;strokeColor=#d79b00;" vertex="1" parent="1">
          <mxGeometry x="669.05" y="791" width="90" height="35" as="geometry" />
        </mxCell>
        <mxCell id="wY_InP9v4MQlX6HiAcbp-205" value="" style="rounded=0;whiteSpace=wrap;html=1;labelBackgroundColor=none;strokeWidth=2;fillColor=none;" vertex="1" parent="1">
          <mxGeometry x="797.5" y="527" width="220.5" height="146" as="geometry" />
        </mxCell>
        <mxCell id="wY_InP9v4MQlX6HiAcbp-206" value="电厂摄像检测服务" style="text;html=1;strokeColor=none;fillColor=none;align=center;verticalAlign=middle;whiteSpace=wrap;rounded=0;labelBackgroundColor=none;" vertex="1" parent="1">
          <mxGeometry x="803" y="530" width="104.5" height="20" as="geometry" />
        </mxCell>
        <mxCell id="wY_InP9v4MQlX6HiAcbp-207" value="头盔检测" style="rounded=0;whiteSpace=wrap;html=1;labelBackgroundColor=none;strokeWidth=2;fillColor=#dae8fc;strokeColor=#6c8ebf;" vertex="1" parent="1">
          <mxGeometry x="912.8" y="568" width="90" height="35" as="geometry" />
        </mxCell>
        <mxCell id="wY_InP9v4MQlX6HiAcbp-208" value="着装检测" style="rounded=0;whiteSpace=wrap;html=1;labelBackgroundColor=none;strokeWidth=2;fillColor=#dae8fc;strokeColor=#6c8ebf;" vertex="1" parent="1">
          <mxGeometry x="811.5" y="568" width="90" height="35" as="geometry" />
        </mxCell>
        <mxCell id="wY_InP9v4MQlX6HiAcbp-209" value="吸烟检测" style="rounded=0;whiteSpace=wrap;html=1;labelBackgroundColor=none;strokeWidth=2;fillColor=#dae8fc;strokeColor=#6c8ebf;" vertex="1" parent="1">
          <mxGeometry x="811.5" y="623" width="90" height="35" as="geometry" />
        </mxCell>
        <mxCell id="wY_InP9v4MQlX6HiAcbp-210" value="其他检测" style="rounded=0;whiteSpace=wrap;html=1;labelBackgroundColor=none;strokeWidth=2;fillColor=#dae8fc;strokeColor=#6c8ebf;" vertex="1" parent="1">
          <mxGeometry x="912.8" y="623" width="90" height="35" as="geometry" />
        </mxCell>
        <mxCell id="wY_InP9v4MQlX6HiAcbp-211" value="" style="rounded=0;whiteSpace=wrap;html=1;labelBackgroundColor=none;strokeWidth=2;fillColor=none;" vertex="1" parent="1">
          <mxGeometry x="797.5" y="696" width="220.5" height="146" as="geometry" />
        </mxCell>
        <mxCell id="wY_InP9v4MQlX6HiAcbp-212" value="运维管控中心" style="text;html=1;strokeColor=none;fillColor=none;align=center;verticalAlign=middle;whiteSpace=wrap;rounded=0;labelBackgroundColor=none;" vertex="1" parent="1">
          <mxGeometry x="803" y="696" width="84.5" height="20" as="geometry" />
        </mxCell>
        <mxCell id="wY_InP9v4MQlX6HiAcbp-213" value="市级管控中心" style="rounded=0;whiteSpace=wrap;html=1;labelBackgroundColor=none;strokeWidth=2;fillColor=#f8cecc;strokeColor=#b85450;" vertex="1" parent="1">
          <mxGeometry x="912.8" y="737" width="90" height="35" as="geometry" />
        </mxCell>
        <mxCell id="wY_InP9v4MQlX6HiAcbp-214" value="省级管控中心" style="rounded=0;whiteSpace=wrap;html=1;labelBackgroundColor=none;strokeWidth=2;fillColor=#f8cecc;strokeColor=#b85450;" vertex="1" parent="1">
          <mxGeometry x="811.5" y="737" width="90" height="35" as="geometry" />
        </mxCell>
        <mxCell id="wY_InP9v4MQlX6HiAcbp-215" value="站端管控中心" style="rounded=0;whiteSpace=wrap;html=1;labelBackgroundColor=none;strokeWidth=2;fillColor=#f8cecc;strokeColor=#b85450;" vertex="1" parent="1">
          <mxGeometry x="811.5" y="792" width="90" height="35" as="geometry" />
        </mxCell>
        <mxCell id="wY_InP9v4MQlX6HiAcbp-216" value="其他" style="rounded=0;whiteSpace=wrap;html=1;labelBackgroundColor=none;strokeWidth=2;fillColor=#f8cecc;strokeColor=#b85450;" vertex="1" parent="1">
          <mxGeometry x="912.8" y="792" width="90" height="35" as="geometry" />
        </mxCell>
        <mxCell id="wY_InP9v4MQlX6HiAcbp-218" value="无人机" style="outlineConnect=0;fontColor=#232F3E;gradientColor=#F34482;gradientDirection=north;fillColor=#BC1356;strokeColor=#ffffff;dashed=0;verticalLabelPosition=bottom;verticalAlign=top;align=center;html=1;fontSize=12;fontStyle=0;aspect=fixed;shape=mxgraph.aws4.resourceIcon;resIcon=mxgraph.aws4.autoscaling;labelBackgroundColor=none;" vertex="1" parent="1">
          <mxGeometry x="274" y="117" width="56.5" height="56.5" as="geometry" />
        </mxCell>
        <mxCell id="wY_InP9v4MQlX6HiAcbp-219" value="摄像头" style="points=[];aspect=fixed;html=1;align=center;shadow=0;dashed=0;image;image=img/lib/allied_telesis/security/Surveillance_Camera_Ceiling.svg;labelBackgroundColor=none;strokeWidth=2;fillColor=none;" vertex="1" parent="1">
          <mxGeometry x="356" y="117" width="59.37" height="56.5" as="geometry" />
        </mxCell>
        <mxCell id="wY_InP9v4MQlX6HiAcbp-230" value="mysql集群" style="text;html=1;strokeColor=none;fillColor=none;align=center;verticalAlign=middle;whiteSpace=wrap;rounded=0;labelBackgroundColor=none;" vertex="1" parent="1">
          <mxGeometry x="210" y="1020" width="80" height="20" as="geometry" />
        </mxCell>
        <mxCell id="wY_InP9v4MQlX6HiAcbp-231" value="mysql数据库" style="shape=cylinder;whiteSpace=wrap;html=1;boundedLbl=1;backgroundOutline=1;labelBackgroundColor=none;strokeWidth=2;fillColor=#d5e8d4;strokeColor=#82b366;" vertex="1" parent="1">
          <mxGeometry x="339.5" y="1050" width="56" height="80" as="geometry" />
        </mxCell>
        <mxCell id="wY_InP9v4MQlX6HiAcbp-232" value="" style="rounded=0;whiteSpace=wrap;html=1;labelBackgroundColor=none;strokeWidth=2;fillColor=none;" vertex="1" parent="1">
          <mxGeometry x="476.25" y="1010" width="231" height="140" as="geometry" />
        </mxCell>
        <mxCell id="wY_InP9v4MQlX6HiAcbp-233" value="redis缓存库" style="shape=cylinder;whiteSpace=wrap;html=1;boundedLbl=1;backgroundOutline=1;labelBackgroundColor=none;strokeWidth=2;fillColor=#dae8fc;strokeColor=#6c8ebf;" vertex="1" parent="1">
          <mxGeometry x="504.25" y="1050" width="56" height="80" as="geometry" />
        </mxCell>
        <mxCell id="wY_InP9v4MQlX6HiAcbp-234" value="redis集群" style="text;html=1;strokeColor=none;fillColor=none;align=center;verticalAlign=middle;whiteSpace=wrap;rounded=0;labelBackgroundColor=none;" vertex="1" parent="1">
          <mxGeometry x="477.25" y="1020" width="80" height="20" as="geometry" />
        </mxCell>
        <mxCell id="wY_InP9v4MQlX6HiAcbp-235" value="redis缓存库" style="shape=cylinder;whiteSpace=wrap;html=1;boundedLbl=1;backgroundOutline=1;labelBackgroundColor=none;strokeWidth=2;fillColor=#dae8fc;strokeColor=#6c8ebf;" vertex="1" parent="1">
          <mxGeometry x="606.75" y="1050" width="56" height="80" as="geometry" />
        </mxCell>
        <mxCell id="wY_InP9v4MQlX6HiAcbp-237" value="大数据集群" style="text;html=1;strokeColor=none;fillColor=none;align=center;verticalAlign=middle;whiteSpace=wrap;rounded=0;labelBackgroundColor=none;" vertex="1" parent="1">
          <mxGeometry x="753.25" y="1020" width="80" height="20" as="geometry" />
        </mxCell>
        <mxCell id="wY_InP9v4MQlX6HiAcbp-238" value="大数据存储库" style="shape=cylinder;whiteSpace=wrap;html=1;boundedLbl=1;backgroundOutline=1;labelBackgroundColor=none;strokeWidth=2;fillColor=#f8cecc;strokeColor=#b85450;" vertex="1" parent="1">
          <mxGeometry x="887" y="1050" width="56" height="80" as="geometry" />
        </mxCell>
        <mxCell id="wY_InP9v4MQlX6HiAcbp-241" value="服务层" style="text;html=1;strokeColor=#BD7000;fillColor=#f0a30a;align=center;verticalAlign=middle;whiteSpace=wrap;rounded=0;labelBackgroundColor=none;fontColor=#ffffff;" vertex="1" parent="1">
          <mxGeometry x="170" y="431" width="48" height="20" as="geometry" />
        </mxCell>
      </root>
    </mxGraphModel>
  </diagram>
</mxfile>
